<?xml version="1.0" encoding="UTF-8"?>
<svg width="28px" height="28px" viewBox="0 0 28 28" version="1.1" xmlns="http://www.w3.org/2000/svg" xmlns:xlink="http://www.w3.org/1999/xlink">
    <!-- Generator: Sketch 39.1 (31720) - http://www.bohemiancoding.com/sketch -->
    <title>noun_377491</title>
    <desc>Created with Sketch.</desc>
    <defs>
        <path d="M22.0005301,18.5161226 L20.8231204,18.5161226 L20.8231204,15.7427548 L22.0005301,15.7427548 C23.6444606,15.7427548 24.9847824,14.3671644 24.9847824,12.6809568 C24.9847824,11.1574535 23.8666134,9.86321519 22.3855949,9.66353272 L21.3266667,9.52301542 L21.193375,8.46543785 C21.0008426,6.94933015 19.7345718,5.80300481 18.2535532,5.80300481 C17.8758935,5.80300481 17.4982338,5.87696129 17.1353843,6.03226988 L16.0616458,6.47600872 L15.432213,5.49978327 C14.5287917,4.09461028 13.0107477,3.25890214 11.3816273,3.25890214 C8.72319907,3.25890214 6.56091204,5.44801374 6.52388657,8.15482066 L6.53129167,8.29533796 L6.53129167,9.49343283 L5.34647685,9.66353272 C3.88026852,9.87800649 2.78431481,11.1722448 2.78431481,12.6735612 C2.78431481,14.3597688 4.12463657,15.7353592 5.76856713,15.7353592 L6.94597685,15.7353592 L6.94597685,18.5087269 L5.76116204,18.5087269 C2.58437731,18.5087269 0,15.8906678 0,12.6735612 C0,10.1960193 1.57728472,8.02169901 3.81362269,7.20078216 C4.30976389,3.41421073 7.51616898,0.48553439 11.3816273,0.48553439 C13.6105602,0.48553439 15.6913912,1.46175984 17.1353843,3.14057178 C17.5056389,3.06661531 17.8832986,3.02963707 18.2609583,3.02963707 C20.8009051,3.02963707 23.0076227,4.7380316 23.7407269,7.13422133 C26.0955463,7.88857736 27.7690972,10.1146672 27.7690972,12.6809568 C27.7616921,15.8980634 25.1773148,18.5161226 22.0005301,18.5161226 L22.0005301,18.5161226 Z" id="path-1"></path>
        <mask id="mask-2" maskContentUnits="userSpaceOnUse" maskUnits="objectBoundingBox" x="0" y="0" width="27.7690972" height="18.0305882" fill="white">
            <use xlink:href="#path-1"></use>
        </mask>
        <polygon id="path-3" points="20.79417 21.1727341 18.8318205 19.2128875 15.2403506 22.7997765 15.2403506 10.0866587 12.4634409 10.0866587 12.4634409 22.7997765 8.87937605 19.2128875 6.90962142 21.1801297 13.8555983 28.1098513"></polygon>
        <mask id="mask-4" maskContentUnits="userSpaceOnUse" maskUnits="objectBoundingBox" x="0" y="0" width="13.8845486" height="18.0231925" fill="white">
            <use xlink:href="#path-3"></use>
        </mask>
    </defs>
    <g id="Page-1" stroke="none" stroke-width="1" fill="none" fill-rule="evenodd">
        <g id="Desktop" transform="translate(-764.000000, -19.000000)" stroke-width="0.1" stroke="#FFFFFF" fill="#FFFFFF">
            <g id="Group-2" transform="translate(-40.000000, -11.000000)">
                <g id="noun_377491" transform="translate(804.000000, 30.000000)">
                    <g id="Group">
                        <use id="Shape" mask="url(#mask-2)" xlink:href="#path-1"></use>
                        <use id="Shape" mask="url(#mask-4)" xlink:href="#path-3"></use>
                    </g>
                </g>
            </g>
        </g>
    </g>
</svg>