<?xml version="1.0" encoding="UTF-8"?>
<svg width="42px" height="32px" viewBox="0 0 42 32" version="1.1" xmlns="http://www.w3.org/2000/svg" xmlns:xlink="http://www.w3.org/1999/xlink">
    <!-- Generator: Sketch 39.1 (31720) - http://www.bohemiancoding.com/sketch -->
    <title>Page 1</title>
    <desc>Created with Sketch.</desc>
    <defs>
        <polygon id="path-1" points="0.0001 25 25.8771 25 25.8771 0.1955 0.0001 0.1955"></polygon>
        <polygon id="path-3" points="26.641 25.004 26.641 0.199 13.7026 0.199 0.7642 0.199 0.7642 25.004 26.641 25.004"></polygon>
    </defs>
    <g id="Page-1" stroke="none" stroke-width="1" fill="none" fill-rule="evenodd">
        <g id="Desktop" transform="translate(-633.000000, -18.000000)">
            <g id="Group-2" transform="translate(-40.000000, -11.000000)">
                <g id="Page-1" transform="translate(673.000000, 28.000000)">
                    <g id="Group-3" transform="translate(0.000000, 7.800900)">
                        <mask id="mask-2" fill="white">
                            <use xlink:href="#path-1"></use>
                        </mask>
                        <g id="Clip-2"></g>
                        <path d="M5.3911,12.7515 C4.7981,12.7515 4.3131,12.2665 4.3131,11.6735 C4.3131,11.0805 4.7981,10.5955 5.3911,10.5955 C5.9841,10.5955 6.4691,11.0805 6.4691,11.6735 C6.4691,12.2665 5.9841,12.7515 5.3911,12.7515 M15.0951,12.7515 L8.6261,12.7515 C8.0331,12.7515 7.5471,12.2665 7.5471,11.6735 C7.5471,11.0805 8.0331,10.5955 8.6261,10.5955 L15.0951,10.5955 C15.6881,10.5955 16.1731,11.0805 16.1731,11.6735 C16.1731,12.2665 15.6881,12.7515 15.0951,12.7515 M20.4861,9.5165 L5.3911,9.5165 C4.7961,9.5165 4.3131,9.0335 4.3131,8.4385 C4.3131,7.8435 4.7961,7.3605 5.3911,7.3605 L20.4861,7.3605 C21.0821,7.3605 21.5641,7.8435 21.5641,8.4385 C21.5641,9.0335 21.0821,9.5165 20.4861,9.5165 M8.6261,17.4525 C9.2211,17.4525 9.7041,17.9345 9.7041,18.5305 L9.7041,21.6195 L14.4041,17.7015 C14.5981,17.5405 14.8421,17.4525 15.0951,17.4525 L23.7251,17.4525 L23.7211,2.3475 L2.1521,2.3515 L2.1561,17.4565 L8.6261,17.4525 M8.6261,25.0005 C8.4701,25.0005 8.3141,24.9665 8.1691,24.8975 C7.7901,24.7205 7.5471,24.3405 7.5471,23.9215 L7.5471,19.6085 L2.1521,19.6085 C0.9661,19.6085 0.0001,18.6425 0.0001,17.4565 L0.0001,2.3475 C0.0001,1.1615 0.9661,0.1955 2.1521,0.1955 L23.7251,0.1955 C24.9111,0.1955 25.8771,1.1615 25.8771,2.3475 L25.8771,17.4565 C25.8771,18.6435 24.9111,19.6085 23.7251,19.6085 L15.4851,19.6085 L9.3161,24.7495 C9.1181,24.9145 8.8731,25.0005 8.6261,25.0005" id="Fill-1" fill="#FFFFFF" mask="url(#mask-2)"></path>
                    </g>
                    <path d="M33.172,12.4778 C33.172,13.0708 33.657,13.5558 34.25,13.5558 C34.843,13.5558 35.328,13.0708 35.328,12.4778 C35.328,11.8848 34.843,11.3998 34.25,11.3998 C33.657,11.3998 33.172,11.8848 33.172,12.4778" id="Fill-4" fill="#FFFFFF"></path>
                    <path d="M38.3285,9.2431 C38.3285,8.6501 37.8435,8.1651 37.2505,8.1651 L32.9375,8.1651 C32.3445,8.1651 31.8595,8.6501 31.8595,9.2431 C31.8595,9.8361 32.3445,10.3211 32.9375,10.3211 L37.2505,10.3211 C37.8435,10.3211 38.3285,9.8361 38.3285,9.2431" id="Fill-6" fill="#FFFFFF"></path>
                    <path d="M29.468,8.1649 L27.178,8.1649 C27.526,8.7479 27.738,9.4209 27.738,10.1489 L27.738,10.3209 L29.468,10.3209 C30.061,10.3209 30.546,9.8359 30.546,9.2429 C30.546,8.6499 30.061,8.1649 29.468,8.1649" id="Fill-8" fill="#FFFFFF"></path>
                    <path d="M31.0155,11.3995 L27.7385,11.3995 L27.7385,13.5555 L31.0155,13.5555 C31.6085,13.5555 32.0935,13.0705 32.0935,12.4775 C32.0935,11.8845 31.6085,11.3995 31.0155,11.3995" id="Fill-10" fill="#FFFFFF"></path>
                    <g id="Group-14" transform="translate(15.000000, 0.800900)">
                        <mask id="mask-4" fill="white">
                            <use xlink:href="#path-3"></use>
                        </mask>
                        <g id="Clip-13"></g>
                        <path d="M24.4892,0.199 L2.9162,0.199 C1.7302,0.199 0.7642,1.165 0.7642,2.351 L0.7642,5.445 L2.9192,5.445 L2.9202,2.351 L24.4892,2.355 L24.4852,17.46 L18.0152,17.456 C17.4202,17.456 16.9372,17.938 16.9372,18.534 L16.9372,21.623 L12.7382,18.123 L12.7382,20.931 L17.3252,24.753 C17.5232,24.918 17.7682,25.004 18.0152,25.004 C18.1712,25.004 18.3272,24.97 18.4722,24.901 C18.8512,24.724 19.0942,24.344 19.0942,23.925 L19.0942,19.612 L24.4892,19.612 C25.6752,19.612 26.6412,18.646 26.6412,17.46 L26.6412,2.351 C26.6412,1.165 25.6752,0.199 24.4892,0.199" id="Fill-12" fill="#FFFFFF" mask="url(#mask-4)"></path>
                    </g>
                    <path d="M18.433657,21.1084 C20.4336016,21.1084 20.4373316,18 18.433657,18 C16.4337124,18 16.4299824,21.1084 18.433657,21.1084" id="Fill-15" fill="#FFFFFF"></path>
                </g>
            </g>
        </g>
    </g>
</svg>