<?xml version="1.0" encoding="UTF-8"?>
<svg width="31px" height="26px" viewBox="0 0 31 26" version="1.1" xmlns="http://www.w3.org/2000/svg" xmlns:xlink="http://www.w3.org/1999/xlink">
    <!-- Generator: Sketch 39.1 (31720) - http://www.bohemiancoding.com/sketch -->
    <title>Page 1</title>
    <desc>Created with Sketch.</desc>
    <defs>
        <path d="M7.13074074,0.383259259 L1.64955556,0.383259259 C1.63896296,0.383259259 1.62933333,0.381333333 1.61874074,0.381333333 C1.60814815,0.381333333 1.59851852,0.383259259 1.58792593,0.383259259 L1.48296296,0.383259259 L1.48296296,0.393851852 C1.03903704,0.460296296 0.695259259,0.839703704 0.695259259,1.30385185 C0.695259259,1.768 1.03903704,2.14837037 1.48296296,2.21481481 L1.48296296,2.22540741 L1.58792593,2.22540741 C1.59851852,2.22540741 1.60814815,2.22733333 1.61874074,2.22733333 C1.62933333,2.22733333 1.63896296,2.22540741 1.64955556,2.22540741 L7.1317037,2.22540741 C7.14133333,2.22540741 7.15096296,2.22733333 7.16155556,2.22733333 C7.67192593,2.22733333 8.08503704,1.81422222 8.08503704,1.30385185 C8.08503704,0.794444444 7.67192593,0.381333333 7.16155556,0.381333333 C7.15096296,0.381333333 7.14133333,0.383259259 7.13074074,0.383259259 L7.13074074,0.383259259 Z" id="path-1"></path>
        <path d="M7.13074074,0.255506173 L1.65051852,0.255506173 C1.63896296,0.255506173 1.62933333,0.254222222 1.6197037,0.254222222 C1.60814815,0.254222222 1.59851852,0.255506173 1.58792593,0.255506173 L1.48392593,0.255506173 L1.48392593,0.262567901 C1.03903704,0.306864198 0.695259259,0.559802469 0.695259259,0.869234568 C0.695259259,1.17866667 1.03903704,1.43224691 1.48392593,1.47654321 L1.48392593,1.48360494 L1.58792593,1.48360494 C1.59851852,1.48360494 1.60814815,1.48488889 1.6197037,1.48488889 C1.62933333,1.48488889 1.63896296,1.48360494 1.65051852,1.48360494 L7.1317037,1.48360494 C7.14133333,1.48360494 7.15096296,1.48488889 7.16155556,1.48488889 C7.67192593,1.48488889 8.086,1.20948148 8.086,0.869234568 C8.086,0.52962963 7.67192593,0.254222222 7.16155556,0.254222222 C7.15096296,0.254222222 7.14133333,0.255506173 7.13074074,0.255506173 L7.13074074,0.255506173 Z" id="path-3"></path>
        <path d="M7.13074074,0.255506173 L1.65051852,0.255506173 C1.63896296,0.255506173 1.62933333,0.254222222 1.6197037,0.254222222 L1.6197037,0.254222222 C1.60814815,0.254222222 1.59851852,0.255506173 1.58792593,0.255506173 L1.58792593,0.255506173 L1.48392593,0.255506173 L1.48392593,0.262567901 C1.03903704,0.306864198 0.695259259,0.559802469 0.695259259,0.869234568 L0.695259259,0.869234568 C0.695259259,1.17866667 1.03903704,1.43224691 1.48392593,1.47654321 L1.48392593,1.47654321 L1.48392593,1.48360494 L1.58792593,1.48360494 C1.59851852,1.48360494 1.60814815,1.48488889 1.6197037,1.48488889 L1.6197037,1.48488889 C1.62933333,1.48488889 1.63896296,1.48360494 1.65051852,1.48360494 L1.65051852,1.48360494 L7.1317037,1.48360494 C7.14133333,1.48360494 7.15096296,1.48488889 7.16155556,1.48488889 L7.16155556,1.48488889 C7.67192593,1.48488889 8.086,1.20948148 8.086,0.869234568 L8.086,0.869234568 C8.086,0.52962963 7.67192593,0.254222222 7.16155556,0.254222222 L7.16155556,0.254222222 C7.15096296,0.254222222 7.14133333,0.255506173 7.13074074,0.255506173 L7.13074074,0.255506173 Z" id="path-5"></path>
        <path d="M1.73622222,0.378765432 C1.22585185,0.378765432 0.812740741,0.654814815 0.812740741,0.995061728 C0.812740741,1.33530864 1.22585185,1.61071605 1.73622222,1.61071605 C1.75837037,1.61071605 1.77859259,1.60750617 1.79785185,1.6068642 L9.98881481,1.6068642 C10.01,1.60750617 10.0292593,1.61071605 10.0504444,1.61071605 C10.0725926,1.61071605 10.0918519,1.60750617 10.113037,1.6068642 L10.2228148,1.6068642 L10.2228148,1.59916049 C10.6503704,1.54459259 10.9739259,1.29550617 10.9739259,0.995061728 C10.9739259,0.693975309 10.6503704,0.444246914 10.2228148,0.390320988 L10.2228148,0.378765432 L1.73622222,0.378765432 L1.73622222,0.378765432 Z" id="path-7"></path>
        <path d="M1.73622222,0.378765432 C1.22585185,0.378765432 0.812740741,0.654814815 0.812740741,0.995061728 L0.812740741,0.995061728 C0.812740741,1.33530864 1.22585185,1.61071605 1.73622222,1.61071605 L1.73622222,1.61071605 C1.75837037,1.61071605 1.77859259,1.60750617 1.79785185,1.6068642 L1.79785185,1.6068642 L9.98881481,1.6068642 C10.01,1.60750617 10.0292593,1.61071605 10.0504444,1.61071605 L10.0504444,1.61071605 C10.0725926,1.61071605 10.0918519,1.60750617 10.113037,1.6068642 L10.113037,1.6068642 L10.2228148,1.6068642 L10.2228148,1.59916049 C10.6503704,1.54459259 10.9739259,1.29550617 10.9739259,0.995061728 L10.9739259,0.995061728 C10.9739259,0.693975309 10.6503704,0.444246914 10.2228148,0.390320988 L10.2228148,0.390320988 L10.2228148,0.378765432 L1.73622222,0.378765432 Z" id="path-9"></path>
        <path d="M2.67703704,0 C1.32407407,0 0.234962963,1.12762963 0.197407407,2.48059259 L0.197407407,9.80777778 C0.197407407,11.0105185 1.02459259,11.9879259 2.15125926,12.2132593 L2.15125926,14.3934074 C2.15125926,14.6553333 2.26488889,14.8816296 2.4517037,15.0684444 C2.64044444,15.2571852 2.86481481,15.3322963 3.09014815,15.3322963 C3.31644444,15.3322963 3.54177778,15.2571852 3.73051852,15.0684444 L6.51059259,12.2883704 L14.8912593,12.2883704 C16.2442222,12.2883704 17.3333333,11.1982963 17.3333333,9.84533333 L17.3333333,2.44207407 C17.3333333,1.09007407 16.2442222,0 14.8912593,0 L2.67703704,0 L2.67703704,0 Z M1.92592593,9.84533333 L1.92592593,2.48059259 C1.92592593,2.06748148 2.26488889,1.72851852 2.67703704,1.72851852 L14.8912593,1.72851852 C15.3043704,1.72851852 15.6423704,2.06748148 15.6423704,2.48059259 L15.6423704,9.84533333 C15.6423704,10.2594074 15.3043704,10.5974074 14.8912593,10.5974074 L5.79607407,10.5974074 L3.87977778,12.5137037 L3.87977778,10.5974074 L2.67703704,10.5974074 C2.26488889,10.5974074 1.92592593,10.2594074 1.92592593,9.84533333 L1.92592593,9.84533333 Z" id="path-11"></path>
        <path d="M2.67703704,0 C1.32407407,0 0.234962963,1.12762963 0.197407407,2.48059259 L0.197407407,2.48059259 L0.197407407,9.80777778 C0.197407407,11.0105185 1.02459259,11.9879259 2.15125926,12.2132593 L2.15125926,12.2132593 L2.15125926,14.3934074 C2.15125926,14.6553333 2.26488889,14.8816296 2.4517037,15.0684444 L2.4517037,15.0684444 C2.64044444,15.2571852 2.86481481,15.3322963 3.09014815,15.3322963 L3.09014815,15.3322963 C3.31644444,15.3322963 3.54177778,15.2571852 3.73051852,15.0684444 L3.73051852,15.0684444 L6.51059259,12.2883704 L14.8912593,12.2883704 C16.2442222,12.2883704 17.3333333,11.1982963 17.3333333,9.84533333 L17.3333333,9.84533333 L17.3333333,2.44207407 C17.3333333,1.09007407 16.2442222,0 14.8912593,0 L14.8912593,0 L2.67703704,0 Z M1.92592593,9.84533333 L1.92592593,2.48059259 C1.92592593,2.06748148 2.26488889,1.72851852 2.67703704,1.72851852 L2.67703704,1.72851852 L14.8912593,1.72851852 C15.3043704,1.72851852 15.6423704,2.06748148 15.6423704,2.48059259 L15.6423704,2.48059259 L15.6423704,9.84533333 C15.6423704,10.2594074 15.3043704,10.5974074 14.8912593,10.5974074 L14.8912593,10.5974074 L5.79607407,10.5974074 L3.87977778,12.5137037 L3.87977778,10.5974074 L2.67703704,10.5974074 C2.26488889,10.5974074 1.92592593,10.2594074 1.92592593,9.84533333 L1.92592593,9.84533333 Z" id="path-13"></path>
    </defs>
    <g id="Page-1" stroke="none" stroke-width="1" fill="none" fill-rule="evenodd">
        <g id="Desktop" transform="translate(-514.000000, -20.000000)">
            <g id="Group-2" transform="translate(-40.000000, -11.000000)">
                <g id="Page-1" transform="translate(554.000000, 31.000000)">
                    <g id="Group-13" transform="translate(3.851852, 3.851852)" fill="#36ABF8">
                        <path d="M1.06157037,0.925407407 C1.59312593,0.925407407 2.02453333,1.35681481 2.02453333,1.88837037 C2.02453333,2.41992593 1.59312593,2.85133333 1.06157037,2.85133333 C0.530014815,2.85133333 0.0986074074,2.41992593 0.0986074074,1.88837037 C0.0986074074,1.35681481 0.530014815,0.925407407 1.06157037,0.925407407" id="Fill-1"></path>
                        <path d="M1.06157037,8.62911111 C1.59312593,8.62911111 2.02453333,9.06051852 2.02453333,9.59207407 C2.02453333,10.1236296 1.59312593,10.555037 1.06157037,10.555037 C0.530014815,10.555037 0.0986074074,10.1236296 0.0986074074,9.59207407 C0.0986074074,9.06051852 0.530014815,8.62911111 1.06157037,8.62911111" id="Fill-3"></path>
                        <path d="M1.06157037,16.3328148 C1.59312593,16.3328148 2.02453333,16.7642222 2.02453333,17.2957778 C2.02453333,17.8273333 1.59312593,18.2587407 1.06157037,18.2587407 C0.530014815,18.2587407 0.0986074074,17.8273333 0.0986074074,17.2957778 C0.0986074074,16.7642222 0.530014815,16.3328148 1.06157037,16.3328148" id="Fill-5"></path>
                        <path d="M4.92892593,0.925407407 C5.46048148,0.925407407 5.89188889,1.35681481 5.89188889,1.88837037 C5.89188889,2.41992593 5.46048148,2.85133333 4.92892593,2.85133333 C4.39737037,2.85133333 3.96596296,2.41992593 3.96596296,1.88837037 C3.96596296,1.35681481 4.39737037,0.925407407 4.92892593,0.925407407" id="Fill-7"></path>
                        <path d="M4.92892593,8.62911111 C5.46048148,8.62911111 5.89188889,9.06051852 5.89188889,9.59207407 C5.89188889,10.1236296 5.46048148,10.555037 4.92892593,10.555037 C4.39737037,10.555037 3.96596296,10.1236296 3.96596296,9.59207407 C3.96596296,9.06051852 4.39737037,8.62911111 4.92892593,8.62911111" id="Fill-9"></path>
                        <path d="M4.92892593,16.3328148 C5.46048148,16.3328148 5.89188889,16.7642222 5.89188889,17.2957778 C5.89188889,17.8273333 5.46048148,18.2587407 4.92892593,18.2587407 C4.39737037,18.2587407 3.96596296,17.8273333 3.96596296,17.2957778 C3.96596296,16.7642222 4.39737037,16.3328148 4.92892593,16.3328148" id="Fill-11"></path>
                    </g>
                    <g id="Group-16" transform="translate(19.259259, 12.518519)">
                        <mask id="mask-2" fill="white">
                            <use xlink:href="#path-1"></use>
                        </mask>
                        <g id="Clip-15"></g>
                        <polygon id="Fill-14" fill="#36ABF8" mask="url(#mask-2)" points="-4.11955556 7.04214815 12.9008148 7.04214815 12.9008148 -4.43444444 -4.11955556 -4.43444444"></polygon>
                    </g>
                    <g id="Group-21" fill="#36ABF8">
                        <path d="M25.1357407,19.5104 L25.1357407,23.5548444 C25.1357407,23.8196593 24.9190741,24.0363259 24.6542593,24.0363259 L2.53692593,24.0363259 C2.27211111,24.0363259 2.05544444,23.8196593 2.05544444,23.5548444 L2.05544444,18.7400296 C2.05544444,18.4752148 2.27114815,18.2585481 2.53692593,18.2585481 L13.2816667,18.2585481 C12.7895926,17.7327704 12.4506296,17.0712148 12.311963,16.3326222 L2.53692593,16.3326222 C2.27211111,16.3326222 2.05544444,16.1159556 2.05544444,15.8511407 L2.05544444,11.0363259 C2.05544444,10.7715111 2.27114815,10.5548444 2.53692593,10.5548444 L12.2349259,10.5548444 L12.2349259,8.62891852 L2.53692593,8.62891852 C2.27211111,8.62891852 2.05544444,8.41321481 2.05544444,8.14743704 L2.05544444,3.33262222 C2.05544444,3.06780741 2.27114815,2.85114074 2.53692593,2.85114074 L24.6542593,2.85114074 C24.9190741,2.85114074 25.1357407,3.06684444 25.1357407,3.33262222 L25.1357407,4.33314074 L27.0616667,4.33314074 L27.0616667,3.33262222 C27.0616667,2.00565926 25.9821852,0.925214815 24.6542593,0.925214815 L2.53692593,0.925214815 C1.20996296,0.925214815 0.129518519,2.0046963 0.129518519,3.33262222 L0.129518519,8.14743704 C0.129518519,8.69151111 0.317296296,9.1884 0.623518519,9.59188148 C0.317296296,9.99536296 0.129518519,10.4922519 0.129518519,11.0363259 L0.129518519,15.8511407 C0.129518519,16.3952148 0.317296296,16.8921037 0.623518519,17.2955852 C0.317296296,17.6990667 0.129518519,18.1959556 0.129518519,18.7400296 L0.129518519,23.5548444 C0.129518519,24.8827704 1.209,25.9622519 2.53692593,25.9622519 L24.6542593,25.9622519 C25.9821852,25.9622519 27.0616667,24.8827704 27.0616667,23.5548444 L27.0616667,19.5104 L25.1357407,19.5104 Z" id="Fill-17"></path>
                        <path d="M20.7429926,12.9126593 L20.7429926,12.9020667 L20.8469926,12.9020667 C20.8575852,12.9020667 20.8681778,12.8991778 20.8778074,12.8991778 C20.889363,12.8991778 20.8989926,12.9020667 20.9095852,12.9020667 L26.3898074,12.9020667 C26.4004,12.9020667 26.4109926,12.8991778 26.4215852,12.8991778 C26.9319556,12.8991778 27.3450667,13.3122889 27.3450667,13.8226593 C27.3450667,14.3330296 26.9319556,14.7461407 26.4215852,14.7461407 C26.4109926,14.7461407 26.4004,14.7442148 26.3907704,14.7432519 L20.9095852,14.7432519 C20.8989926,14.7442148 20.889363,14.7461407 20.8778074,14.7461407 C20.8681778,14.7461407 20.8575852,14.7442148 20.8469926,14.7432519 L20.7429926,14.7432519 L20.7429926,14.7326593 C20.2981037,14.6671778 19.9543259,14.2868074 19.9543259,13.8226593 C19.9543259,13.3594741 20.2981037,12.9791037 20.7429926,12.9126593" id="Fill-19"></path>
                    </g>
                    <g id="Group-27" transform="translate(19.259259, 12.518519)">
                        <g id="Group-24">
                            <mask id="mask-4" fill="white">
                                <use xlink:href="#path-3"></use>
                            </mask>
                            <g id="Clip-23"></g>
                            <polygon id="Fill-22" fill="#36ABF8" mask="url(#mask-4)" points="36.5926889 453.234568 -949.481385 453.234568 -949.481385 -270.91358 36.5926889 -270.91358"></polygon>
                        </g>
                        <mask id="mask-6" fill="white">
                            <use xlink:href="#path-5"></use>
                        </mask>
                        <g id="Clip-26"></g>
                        <polygon id="Fill-25" fill="#36ABF8" mask="url(#mask-6)" points="-4.11955556 4.69476543 12.9008148 4.69476543 12.9008148 -2.9562963 -4.11955556 -2.9562963"></polygon>
                    </g>
                    <path d="M18.1068815,9.23500741 L26.5934741,9.23500741 L26.5934741,9.25234074 C27.0210296,9.33322963 27.3445852,9.70782222 27.3445852,10.1584889 C27.3445852,10.6101185 27.0210296,10.9847111 26.5934741,11.0656 L26.5934741,11.0761926 L26.4836963,11.0761926 C26.4625111,11.0781185 26.4422889,11.0829333 26.4211037,11.0829333 C26.3999185,11.0829333 26.3796963,11.0781185 26.3594741,11.0761926 L18.1685111,11.0761926 C18.1482889,11.0781185 18.1280667,11.0829333 18.1068815,11.0829333 C17.5965111,11.0829333 17.1834,10.6688593 17.1834,10.1584889 C17.1834,9.64908148 17.5965111,9.23500741 18.1068815,9.23500741" id="Fill-28" fill="#36ABF8"></path>
                    <g id="Group-35" transform="translate(16.370370, 8.666667)">
                        <g id="Group-32">
                            <mask id="mask-8" fill="white">
                                <use xlink:href="#path-7"></use>
                            </mask>
                            <g id="Clip-31"></g>
                            <polygon id="Fill-30" fill="#36ABF8" mask="url(#mask-8)" points="39.4815778 455.802469 -946.592496 455.802469 -946.592496 -268.345679 39.4815778 -268.345679"></polygon>
                        </g>
                        <mask id="mask-10" fill="white">
                            <use xlink:href="#path-9"></use>
                        </mask>
                        <g id="Clip-34"></g>
                        <polygon id="Fill-33" fill="#36ABF8" mask="url(#mask-10)" points="-4.00207407 4.82059259 15.7897037 4.82059259 15.7897037 -2.83111111 -4.00207407 -2.83111111"></polygon>
                    </g>
                    <path d="M15.4075037,8.25798519 C15.4075037,7.84487407 15.7455037,7.50591111 16.1595778,7.50591111 L28.3718741,7.50591111 C28.7859481,7.50591111 29.1239481,7.84487407 29.1239481,8.25798519 L29.1239481,15.6236889 C29.1239481,16.0368 28.7859481,16.3748 28.3718741,16.3748 L19.2786148,16.3748 L17.3613556,18.2910963 L17.3613556,16.3748 L16.1595778,16.3748 C15.7455037,16.3748 15.4075037,16.0368 15.4075037,15.6236889 L15.4075037,8.25798519 Z M13.6789852,8.25798519 L13.6789852,15.5861333 C13.6789852,16.7888741 14.5052074,17.7653185 15.632837,17.9906519 L15.632837,20.1708 C15.632837,20.4336889 15.7455037,20.6590222 15.9332815,20.8468 C16.1210593,21.0345778 16.3473556,21.1096889 16.5726889,21.1096889 C16.7980222,21.1096889 17.0233556,21.0345778 17.2111333,20.8468 L19.9921704,18.065763 L28.3718741,18.065763 C29.724837,18.065763 30.8149111,16.9766519 30.8149111,15.6236889 L30.8149111,8.22042963 C30.8149111,6.86746667 29.724837,5.77739259 28.3718741,5.77739259 L16.1595778,5.77739259 C14.8066148,5.77739259 13.7165407,6.90502222 13.6789852,8.25798519 L13.6789852,8.25798519 Z" id="Fill-36" fill="#36ABF8"></path>
                    <g id="Group-43" transform="translate(13.481481, 5.777778)">
                        <g id="Group-40">
                            <mask id="mask-12" fill="white">
                                <use xlink:href="#path-11"></use>
                            </mask>
                            <g id="Clip-39"></g>
                            <polygon id="Fill-38" fill="#36ABF8" mask="url(#mask-12)" points="42.3704667 686.592593 -943.703607 686.592593 -943.703607 -399.62963 42.3704667 -399.62963"></polygon>
                        </g>
                        <mask id="mask-14" fill="white">
                            <use xlink:href="#path-13"></use>
                        </mask>
                        <g id="Clip-42"></g>
                        <polygon id="Fill-41" fill="#36ABF8" mask="url(#mask-14)" points="-4.61740741 20.1471111 22.1481481 20.1471111 22.1481481 -4.81481481 -4.61740741 -4.81481481"></polygon>
                    </g>
                </g>
            </g>
        </g>
    </g>
</svg>